# xmcd CD database file
#
# Track frame offsets:
#	150
#	19335
#	33874
#	61332
#	79201
#	103164
#	123074
#	144717
#	158991
#	181506
#	198114
#
# Disc length: 3089 seconds
#
# Revision: 3
# Processed by: cddbd v1.5.2PL0 Copyright (c) Steve Scherf et al.
# Submitted via: CDex 1.51
#
DISCID=880c0f0b
DTITLE=Señor DeVivo - Rumors of Life
DYEAR=2002
DGENRE=Jazz
TTITLE0=Voices
TTITLE1=Dusty Road
TTITLE2=Tomorrow
TTITLE3=How Much Time
TTITLE4=Strong Wind
TTITLE5=Better Way
TTITLE6=Without You
TTITLE7=On My Way
TTITLE8=Outta Here
TTITLE9=Some Kind
TTITLE10=Smashing The Atom
EXTD=YEAR: 2002
EXTT0=
EXTT1=
EXTT2=
EXTT3=
EXTT4=
EXTT5=
EXTT6=
EXTT7=
EXTT8=
EXTT9=
EXTT10=
PLAYORDER=
